<svg xmlns="http://www.w3.org/2000/svg" xmlns:xlink="http://www.w3.org/1999/xlink" viewBox="0 0 722.83 722.83"><defs><style>.cls-1{fill:#1b2631;}.cls-2{fill:#3f291b;}.cls-3{fill:url(#Nouv._nuance_de_dégradé_62);}.cls-4{fill:url(#linear-gradient);}.cls-5{fill:#ffc800;}.cls-6{fill:#e67e1f;}.cls-7{fill:url(#Nouv._nuance_de_dégradé_65);}.cls-8{fill:#91c43a;}.cls-9{fill:url(#Nouv._nuance_de_dégradé_67);}.cls-10{fill:url(#Nouv._nuance_de_dégradé_55);}.cls-11{fill:#e5681f;}.cls-12{fill:url(#Nouv._nuance_de_dégradé_58);}.cls-13{fill:url(#Nouv._nuance_de_dégradé_60);}.cls-14{fill:url(#Nouv._nuance_de_dégradé_43);}.cls-15{fill:url(#Nouv._nuance_de_dégradé_48);}.cls-16{fill:url(#Nouv._nuance_de_dégradé_43-2);}.cls-17{fill:url(#Nouv._nuance_de_dégradé_48-2);}.cls-18{fill:#ee673c;}.cls-19{fill:url(#Nouv._nuance_de_dégradé_40);}.cls-20{fill:url(#Nouv._nuance_de_dégradé_50);}.cls-21{fill:url(#Nouv._nuance_de_dégradé_49);}</style><linearGradient id="Nouv._nuance_de_dégradé_62" x1="227.2" y1="3613.3" x2="507.48" y2="3613.3" gradientTransform="translate(670.51 4266.06) rotate(180)" gradientUnits="userSpaceOnUse"><stop offset="0.28" stop-color="#91c43a"/><stop offset="0.4" stop-color="#8fc33a"/><stop offset="0.44" stop-color="#88be3a"/><stop offset="0.47" stop-color="#7db53a"/><stop offset="0.49" stop-color="#6ca83a"/><stop offset="0.51" stop-color="#56983a"/><stop offset="0.53" stop-color="#3a843b"/><stop offset="0.54" stop-color="#1b6d3b"/><stop offset="0.55" stop-color="#14683b"/></linearGradient><linearGradient id="linear-gradient" x1="325.02" y1="652.76" x2="210.88" y2="652.76" gradientUnits="userSpaceOnUse"><stop offset="0.03" stop-color="#ee6314"/><stop offset="0.07" stop-color="#f17510"/><stop offset="0.13" stop-color="#f58c0a"/><stop offset="0.21" stop-color="#f79e05"/><stop offset="0.3" stop-color="#f9ab02"/><stop offset="0.42" stop-color="#fbb301"/><stop offset="0.67" stop-color="#fbb500"/></linearGradient><linearGradient id="Nouv._nuance_de_dégradé_65" x1="521.96" y1="435.55" x2="521.96" y2="780.14" gradientUnits="userSpaceOnUse"><stop offset="0.1" stop-color="#ee6314"/><stop offset="0.15" stop-color="#f17510"/><stop offset="0.23" stop-color="#f58c0a"/><stop offset="0.32" stop-color="#f79e05"/><stop offset="0.44" stop-color="#f9ab02"/><stop offset="0.58" stop-color="#fbb301"/><stop offset="0.9" stop-color="#fbb500"/></linearGradient><linearGradient id="Nouv._nuance_de_dégradé_67" x1="654.18" y1="606.45" x2="600.14" y2="660.49" gradientUnits="userSpaceOnUse"><stop offset="0.07" stop-color="#8b5f4b"/><stop offset="0.21" stop-color="#855b47"/><stop offset="0.4" stop-color="#744e3c"/><stop offset="0.62" stop-color="#573a2a"/><stop offset="0.77" stop-color="#3f291b"/></linearGradient><linearGradient id="Nouv._nuance_de_dégradé_55" x1="148.81" y1="434.25" x2="72.07" y2="510.99" gradientUnits="userSpaceOnUse"><stop offset="0.07" stop-color="#ee6314"/><stop offset="0.13" stop-color="#f27a0e"/><stop offset="0.21" stop-color="#f59009"/><stop offset="0.3" stop-color="#f8a105"/><stop offset="0.41" stop-color="#faac02"/><stop offset="0.56" stop-color="#fbb300"/><stop offset="1" stop-color="#fbb500"/></linearGradient><linearGradient id="Nouv._nuance_de_dégradé_58" x1="39.14" y1="672.57" x2="145.73" y2="565.98" gradientUnits="userSpaceOnUse"><stop offset="0.07" stop-color="#8b5f4b"/><stop offset="0.24" stop-color="#7e5643"/><stop offset="0.55" stop-color="#5d3f2e"/><stop offset="0.79" stop-color="#3f291b"/></linearGradient><linearGradient id="Nouv._nuance_de_dégradé_60" x1="612.9" y1="383.02" x2="612.9" y2="449.51" gradientTransform="matrix(-1, 0, 0, 1, 670.51, 296.8)" gradientUnits="userSpaceOnUse"><stop offset="0.27" stop-color="#ee6314"/><stop offset="0.29" stop-color="#ef6b12"/><stop offset="0.39" stop-color="#f58c0c"/><stop offset="0.49" stop-color="#f9a707"/><stop offset="0.6" stop-color="#fdb903"/><stop offset="0.71" stop-color="#fec401"/><stop offset="0.82" stop-color="#ffc800"/></linearGradient><linearGradient id="Nouv._nuance_de_dégradé_43" x1="485.78" y1="631.93" x2="455.42" y2="662.29" gradientUnits="userSpaceOnUse"><stop offset="0.04" stop-color="#ee6314"/><stop offset="0.14" stop-color="#f17410"/><stop offset="0.36" stop-color="#f59009"/><stop offset="0.57" stop-color="#f8a504"/><stop offset="0.79" stop-color="#fab101"/><stop offset="1" stop-color="#fbb500"/></linearGradient><linearGradient id="Nouv._nuance_de_dégradé_48" x1="162.31" y1="69.35" x2="205.63" y2="26.03" gradientUnits="userSpaceOnUse"><stop offset="0.1" stop-color="#ee6314"/><stop offset="0.15" stop-color="#f17510"/><stop offset="0.25" stop-color="#f58c0a"/><stop offset="0.35" stop-color="#f79e05"/><stop offset="0.48" stop-color="#f9ab02"/><stop offset="0.65" stop-color="#fbb301"/><stop offset="1" stop-color="#fbb500"/></linearGradient><linearGradient id="Nouv._nuance_de_dégradé_43-2" x1="936.58" y1="4249.29" x2="944.29" y2="4257.01" gradientTransform="matrix(1, 0, 0, -1, -713.96, 4313.38)" xlink:href="#Nouv._nuance_de_dégradé_43"/><linearGradient id="Nouv._nuance_de_dégradé_48-2" x1="1249.34" y1="4034.45" x2="1258.76" y2="4043.87" gradientTransform="matrix(1, 0, 0, -1, -713.96, 4313.38)" xlink:href="#Nouv._nuance_de_dégradé_48"/><linearGradient id="Nouv._nuance_de_dégradé_40" x1="72.95" y1="159.25" x2="129.72" y2="102.47" gradientUnits="userSpaceOnUse"><stop offset="0.14" stop-color="#8b5f4b"/><stop offset="0.72" stop-color="#3f291b"/></linearGradient><linearGradient id="Nouv._nuance_de_dégradé_50" x1="1258.92" y1="4107.23" x2="1311.03" y2="4159.33" gradientTransform="matrix(1, 0, 0, -1, -713.96, 4235.45)" gradientUnits="userSpaceOnUse"><stop offset="0.32" stop-color="#8b5f4b"/><stop offset="0.38" stop-color="#7c5441"/><stop offset="0.5" stop-color="#614131"/><stop offset="0.63" stop-color="#4e3425"/><stop offset="0.76" stop-color="#432c1d"/><stop offset="0.9" stop-color="#3f291b"/></linearGradient><linearGradient id="Nouv._nuance_de_dégradé_49" x1="571.03" y1="237.06" x2="616.67" y2="191.43" gradientUnits="userSpaceOnUse"><stop offset="0.06" stop-color="#ee6314"/><stop offset="0.09" stop-color="#f17211"/><stop offset="0.16" stop-color="#f58d0c"/><stop offset="0.23" stop-color="#f9a307"/><stop offset="0.32" stop-color="#fcb404"/><stop offset="0.43" stop-color="#febf02"/><stop offset="0.58" stop-color="#ffc600"/><stop offset="1" stop-color="#ffc800"/></linearGradient></defs><title>Abstrait 4</title><g id="Abstrait_4" data-name="Abstrait 4"><g id="Arrière-plan-7" data-name="Arrière-plan"><rect class="cls-1" width="722.83" height="722.83"/><polygon class="cls-1" points="722.84 435.41 407.08 119.66 407.08 211.35 722.84 527.1 722.84 435.41"/><polygon class="cls-1" points="220.44 417.98 248.01 390.42 145.83 288.24 90.7 288.24 220.44 417.98"/><polygon class="cls-1" points="494.92 372.52 405.68 372.52 314.61 281.45 205.54 390.52 78.64 263.63 36.33 263.63 0 227.3 0 722.83 722.84 722.83 722.84 600.44 494.92 372.52"/><polygon class="cls-1" points="297.49 354.1 297.49 629.34 391 722.83 666.23 722.83 297.49 354.1"/></g><g id="Composition_principale-7" data-name="Composition principale"><g id="Partie_inférieure" data-name="Partie inférieure"><polygon class="cls-2" points="389.38 500.01 323.67 500.01 323.67 543.06 284.39 543.06 157.49 416.17 0 416.17 0 722.83 612.21 722.83 389.38 500.01"/><path class="cls-1" d="M440.86,517.23l-46.27,49.82L550.37,722.83h96.09Zm-60.62,65.28L520.57,722.83h14.6L387.27,574.94Z"/><polygon class="cls-3" points="443.31 722.83 163.03 722.83 303.17 582.7 443.31 722.83"/><polygon class="cls-4" points="303.17 722.83 163.03 722.83 303.17 582.7 303.17 582.7 303.17 722.83"/><polygon class="cls-5" points="380.24 582.5 380.22 582.53 303.17 582.7 443.31 722.83 520.57 722.83 380.24 582.5"/><polygon class="cls-6" points="380.25 617.25 485.83 722.83 443.31 722.83 337.84 617.37 380.22 617.27 380.25 617.25"/><polygon class="cls-7" points="442.59 539.43 417.93 564.09 576.68 722.83 626 722.83 442.59 539.43"/><polygon class="cls-8" points="0 456.56 0 722.83 266.28 722.83 0 456.56"/><polygon class="cls-6" points="0 408.55 240.53 649.07 291.47 649.07 0 357.61 0 408.55"/><polygon class="cls-2" points="317.21 722.83 266.27 722.83 240.49 697.05 291.43 697.05 317.21 722.83"/><polygon class="cls-1" points="0 456.56 240.49 697.06 240.49 649.04 0 408.55 0 456.56"/><polygon class="cls-1" points="0 377 313.91 690.91 313.91 640.7 0 326.79 0 377"/><polygon class="cls-6" points="0 377 272.07 649.07 291.47 649.07 0 357.61 0 377"/><polygon class="cls-5" points="0 343.16 239.91 583.07 279.13 583.07 0 303.93 0 343.16"/><polygon class="cls-9" points="580.65 564.07 511.51 564.07 670.28 722.83 722.84 722.83 722.84 706.25 580.65 564.07"/><polygon class="cls-6" points="486.3 517.23 440.86 517.23 646.46 722.83 691.91 722.83 486.3 517.23"/><polygon class="cls-1" points="246.48 722.83 232.56 722.83 164.29 654.56 178.21 654.56 246.48 722.83"/><polygon class="cls-10" points="0 343.16 239.91 583.07 256.27 583.07 0 326.79 0 343.16"/><polygon class="cls-1" points="348.95 690.91 313.91 690.91 313.91 655.87 348.95 690.91"/><polygon class="cls-5" points="0 722.83 0 638.04 133.83 638.04 218.63 722.83 0 722.83"/><polygon class="cls-1" points="133.83 638.04 0 638.04 0 722.83 133.86 722.83 133.86 638.06 133.83 638.04"/><polygon class="cls-6" points="197.37 722.83 146.43 722.83 93.61 670.01 144.55 670.01 197.37 722.83"/><polygon class="cls-11" points="146.43 722.83 115.21 722.83 93.61 701.24 93.61 670.01 146.43 722.83"/><polygon class="cls-12" points="82.37 538.92 82.37 629.34 172.79 629.34 82.37 538.92"/><polygon class="cls-5" points="0 547.01 82.34 629.34 82.37 629.34 82.37 538.92 0 456.56 0 547.01"/><polygon class="cls-11" points="380.24 659.76 337.84 617.37 380.22 617.27 380.24 617.26 380.24 659.76"/><polygon class="cls-5" points="442.59 539.43 467.23 564.07 417.95 564.07 442.59 539.43"/><polygon class="cls-13" points="93.61 701.19 93.61 701.24 115.21 722.83 0 722.83 0 701.19 93.61 701.19"/><polygon class="cls-1" points="363.12 691.82 363.22 642.75 443.31 722.83 394.07 722.83 363.09 691.85 363.12 691.82"/><polygon class="cls-1" points="363.22 642.75 412.42 691.94 363.18 691.94 363.09 691.85 363.12 691.82 363.22 642.75"/><polygon class="cls-14" points="402.48 574.94 387.27 574.94 535.16 722.83 550.37 722.83 402.48 574.94"/></g><g id="Partie_supérieure" data-name="Partie supérieure"><polygon class="cls-6" points="189.84 0 283.41 0 283.41 119.27 189.84 212.84 189.84 0"/><polygon class="cls-8" points="0 23.01 189.83 212.84 189.83 0 0 0 0 23.01"/><polygon class="cls-5" points="79.72 152.47 79.72 0 0 0 0 72.75 79.72 152.47"/><polygon class="cls-1" points="232.8 134.65 263.1 102.02 161.08 0 98.15 0 232.8 134.65"/><polygon class="cls-1" points="189.84 18.8 189.84 9.24 272.5 91.9 267.89 96.86 189.84 18.8"/><polygon class="cls-2" points="231.19 0 414.76 0 322.97 91.78 231.19 0"/><polygon class="cls-2" points="189.84 134.65 189.84 91.69 232.8 134.65 189.84 134.65"/><polygon class="cls-5" points="272.51 91.89 272.5 91.9 189.84 9.24 189.84 0 231.19 0 322.97 91.78 272.51 91.89"/><polygon class="cls-6" points="272.5 69.15 203.35 0 231.19 0 300.27 69.07 272.51 69.13 272.5 69.15"/><polygon class="cls-15" points="231.66 120.12 247.81 103.97 143.85 0 111.55 0 231.66 120.12"/><polygon class="cls-6" points="272.5 41.3 300.27 69.07 272.51 69.13 272.5 69.14 272.5 41.3"/><polygon class="cls-5" points="231.66 120.12 215.53 103.98 247.8 103.98 231.66 120.12"/><polygon class="cls-1" points="283.41 20.29 263.12 0 231.19 0 283.41 52.22 283.41 20.29"/><polygon class="cls-1" points="251.49 20.29 283.41 52.22 283.41 20.29 251.49 20.29"/><polygon class="cls-16" points="257.93 96.86 189.84 28.76 189.84 18.8 267.89 96.86 257.93 96.86"/><polygon class="cls-6" points="722.76 440.44 330.64 48.31 364 48.31 722.76 407.07 722.76 440.44"/><polygon class="cls-1" points="722.76 460.62 322.98 60.83 322.98 27.95 722.76 427.73 722.76 460.62"/><polygon class="cls-6" points="722.76 440.44 330.64 48.31 343.34 48.31 722.76 427.73 722.76 440.44"/><polygon class="cls-5" points="722.76 475.59 338.72 91.54 364.41 91.54 722.76 449.9 722.76 475.59"/><polygon class="cls-17" points="722.76 460.62 353.69 91.54 364.41 91.54 722.76 449.9 722.76 460.62"/><path class="cls-8" d="M722.76,1.14V375.63L347.13,0h375.7A10.57,10.57,0,0,0,722.76,1.14Z"/><path class="cls-18" d="M722.83,0a10.57,10.57,0,0,0-.07,1.14V148.71H673.21L524.51,0Z"/><path class="cls-1" d="M616.43,0h106.4a10.57,10.57,0,0,0-.07,1.14V106.33Z"/><polygon class="cls-2" points="462.07 55.73 462.06 114.93 402.87 55.73 462.07 55.73"/><polygon class="cls-6" points="673.24 148.71 673.21 148.71 524.51 0 616.43 0 673.24 56.81 673.24 148.71"/><polygon class="cls-1" points="722.76 407.07 364.02 48.33 364.02 16.88 722.76 375.63 722.76 407.07"/><polygon class="cls-19" points="79.72 102.73 79.72 152.47 129.46 152.47 79.72 102.73"/><polygon class="cls-2" points="524.51 0 406.35 0 609.55 203.19 673.18 203.19 673.21 148.71 524.51 0"/><polygon class="cls-20" points="524.51 0 673.21 148.71 673.18 203.19 673.18 203.19 469.99 0 524.51 0"/><polygon class="cls-21" points="462.07 55.73 462.06 114.93 722.76 375.63 722.76 316.42 462.07 55.73"/></g></g></g></svg>