<svg xmlns="http://www.w3.org/2000/svg" xmlns:xlink="http://www.w3.org/1999/xlink" viewBox="0 0 722.83 722.83"><defs><style>.cls-1{fill:#1b2631;}.cls-2{fill:#32163c;}.cls-3{fill:#fddec0;}.cls-4{fill:#ab83ae;}.cls-5{fill:#fcbc45;}.cls-6{fill:#92af3b;}.cls-7{fill:url(#Nouv._nuance_de_dégradé_37);}.cls-8{fill:url(#Nouv._nuance_de_dégradé_38);}.cls-9{fill:url(#Nouv._nuance_de_dégradé_36);}.cls-10{fill:url(#Nouv._nuance_de_dégradé_35);}.cls-11{fill:url(#Nouv._nuance_de_dégradé_34);}.cls-12{fill:#f28525;}.cls-13{fill:url(#Nouv._nuance_de_dégradé_39);}.cls-14{fill:url(#Nouv._nuance_de_dégradé_33);}</style><linearGradient id="Nouv._nuance_de_dégradé_37" x1="669.68" y1="470.7" x2="710.04" y2="430.34" gradientUnits="userSpaceOnUse"><stop offset="0.24" stop-color="#92af3b"/><stop offset="0.53" stop-color="#90ad3b"/><stop offset="0.63" stop-color="#8aa639"/><stop offset="0.7" stop-color="#809b36"/><stop offset="0.76" stop-color="#718a32"/><stop offset="0.81" stop-color="#5e742d"/><stop offset="0.86" stop-color="#475927"/><stop offset="0.89" stop-color="#2d3c20"/></linearGradient><linearGradient id="Nouv._nuance_de_dégradé_38" x1="199.46" y1="684.16" x2="172.44" y2="657.14" gradientUnits="userSpaceOnUse"><stop offset="0.16" stop-color="#fcbc45"/><stop offset="0.4" stop-color="#faba45"/><stop offset="0.49" stop-color="#f3b543"/><stop offset="0.55" stop-color="#e8ab40"/><stop offset="0.6" stop-color="#d79d3c"/><stop offset="0.64" stop-color="#c18b37"/><stop offset="0.68" stop-color="#a57430"/><stop offset="0.71" stop-color="#865a28"/><stop offset="0.74" stop-color="#684121"/></linearGradient><linearGradient id="Nouv._nuance_de_dégradé_36" x1="647.56" y1="289.58" x2="578.91" y2="358.23" gradientUnits="userSpaceOnUse"><stop offset="0.4" stop-color="#ab83ae"/><stop offset="0.55" stop-color="#a981ac"/><stop offset="0.6" stop-color="#a27ba6"/><stop offset="0.64" stop-color="#97719b"/><stop offset="0.67" stop-color="#86618b"/><stop offset="0.7" stop-color="#704e76"/><stop offset="0.73" stop-color="#55365d"/><stop offset="0.75" stop-color="#36193f"/><stop offset="0.75" stop-color="#32163c"/></linearGradient><linearGradient id="Nouv._nuance_de_dégradé_35" x1="505.4" y1="235.75" x2="460.52" y2="190.86" gradientUnits="userSpaceOnUse"><stop offset="0.47" stop-color="#92af3b"/><stop offset="0.63" stop-color="#90ad3b"/><stop offset="0.69" stop-color="#8aa639"/><stop offset="0.73" stop-color="#809b36"/><stop offset="0.76" stop-color="#718a32"/><stop offset="0.79" stop-color="#5e742d"/><stop offset="0.82" stop-color="#475927"/><stop offset="0.84" stop-color="#2d3c20"/></linearGradient><linearGradient id="Nouv._nuance_de_dégradé_34" x1="612.62" y1="53.24" x2="588.33" y2="28.95" gradientUnits="userSpaceOnUse"><stop offset="0.38" stop-color="#ab83ae"/><stop offset="0.52" stop-color="#a981ac"/><stop offset="0.57" stop-color="#a27ba6"/><stop offset="0.6" stop-color="#97719b"/><stop offset="0.63" stop-color="#86618b"/><stop offset="0.66" stop-color="#704e76"/><stop offset="0.68" stop-color="#55365d"/><stop offset="0.7" stop-color="#36193f"/><stop offset="0.7" stop-color="#32163c"/></linearGradient><linearGradient id="Nouv._nuance_de_dégradé_39" x1="338.57" y1="363.56" x2="374.02" y2="363.56" gradientUnits="userSpaceOnUse"><stop offset="0.31" stop-color="#92af3b"/><stop offset="0.52" stop-color="#90ad3b"/><stop offset="0.59" stop-color="#8aa639"/><stop offset="0.65" stop-color="#809b36"/><stop offset="0.69" stop-color="#718a32"/><stop offset="0.73" stop-color="#5e742d"/><stop offset="0.76" stop-color="#475927"/><stop offset="0.79" stop-color="#2d3c20"/></linearGradient><linearGradient id="Nouv._nuance_de_dégradé_33" x1="398.57" y1="34.32" x2="377.27" y2="55.62" gradientUnits="userSpaceOnUse"><stop offset="0.47" stop-color="#92af3b"/><stop offset="0.62" stop-color="#90ad3b"/><stop offset="0.68" stop-color="#8aa639"/><stop offset="0.71" stop-color="#809b36"/><stop offset="0.75" stop-color="#718a32"/><stop offset="0.77" stop-color="#5e742d"/><stop offset="0.79" stop-color="#475927"/><stop offset="0.81" stop-color="#2d3c20"/></linearGradient></defs><title>Fichier 2</title><g id="Calque_2" data-name="Calque 2"><g id="Abstrait_3" data-name="Abstrait 3"><g id="Arrière-plan"><rect class="cls-1" width="722.83" height="722.83"/></g><g id="Composition_principale" data-name="Composition principale"><polygon class="cls-2" points="722.83 247.48 426.8 543.51 426.8 547.13 722.83 251.1 722.83 247.48"/><polygon class="cls-2" points="534.35 0 201.2 333.15 201.2 409.55 610.75 0 534.35 0"/><polygon class="cls-3" points="484.18 244.17 484.18 153.58 330.61 0 240.01 0 484.18 244.17"/><polygon class="cls-2" points="175.9 722.83 429.59 469.14 429.59 418.69 125.45 722.83 175.9 722.83"/><polygon class="cls-1" points="365.7 433.7 722.83 76.57 722.83 0 669.06 0 365.7 303.36 365.7 433.7"/><polygon class="cls-2" points="722.83 0 690.7 0 553.7 136.99 553.7 200.68 722.83 31.55 722.83 0"/><polygon class="cls-4" points="722.83 91.45 344.45 469.83 344.45 486.89 722.83 108.51 722.83 91.45"/><polygon class="cls-4" points="235.21 424.14 0.01 659.34 0.01 666.75 235.21 431.55 235.21 424.14"/><polygon class="cls-3" points="722.83 126.77 483.98 365.62 483.98 376.38 722.83 137.54 722.83 126.77"/><polygon class="cls-5" points="722.83 459.57 722.83 137.54 561.81 298.55 722.83 459.57"/><polygon class="cls-6" points="722.83 513 722.83 322.11 627.38 417.55 722.83 513"/><polygon class="cls-7" points="627.38 417.55 722.83 513 722.83 459.57 654.1 390.84 627.38 417.55"/><polygon class="cls-4" points="553.7 200.68 553.7 174.39 379.31 0 353.02 0 553.7 200.68"/><polygon class="cls-5" points="149.84 722.83 238.13 634.54 238.13 582.55 97.85 722.83 149.84 722.83"/><polygon class="cls-8" points="125.45 722.83 149.84 722.83 238.13 634.54 238.13 610.15 125.45 722.83"/><polygon class="cls-4" points="565.18 393.71 679.73 279.16 679.73 235.67 565.18 350.22 565.18 393.71"/><polygon class="cls-9" points="611.07 347.81 679.73 279.16 679.73 235.67 589.33 326.07 611.07 347.81"/><polygon class="cls-2" points="722.83 279.32 663.53 338.62 663.53 368.21 722.83 308.91 722.83 279.32"/><polygon class="cls-2" points="302.94 482.29 484.18 301.05 484.18 276.16 302.94 457.4 302.94 482.29"/><polygon class="cls-4" points="314.27 380.38 433.44 261.21 433.44 221.98 314.27 341.15 314.27 380.38"/><polygon class="cls-5" points="365.7 303.36 365.7 328.95 433.44 261.21 433.44 235.62 365.7 303.36"/><polygon class="cls-5" points="365.7 384.76 528.42 222.05 528.42 212.19 365.7 374.91 365.7 384.76"/><polygon class="cls-10" points="454.54 214.53 484.18 244.17 484.18 184.88 454.54 214.53"/><polygon class="cls-3" points="722.83 47.37 418.79 351.41 418.79 356.9 722.83 52.86 722.83 47.37"/><polygon class="cls-5" points="669.06 0 379.31 0 524.19 144.88 669.06 0"/><polygon class="cls-6" points="514.29 120.19 514.29 75.59 438.69 0 394.1 0 514.29 120.19"/><polygon class="cls-3" points="514.3 120.19 514.3 75.59 589.89 0 634.48 0 514.3 120.19"/><polygon class="cls-4" points="621.61 0 559.38 62.23 559.38 87.24 646.63 0 621.61 0"/><polygon class="cls-11" points="634.48 0 559.38 75.1 559.38 87.24 646.63 0 634.48 0"/><polygon class="cls-2" points="533.84 0 514.3 19.55 514.3 31.69 545.99 0 533.84 0"/><polygon class="cls-12" points="514.29 60.99 514.29 38.36 475.93 0 453.3 0 514.29 60.99"/><polygon class="cls-5" points="0.01 645.27 484.18 161.09 484.18 153.95 0.01 638.13 0.01 645.27"/><polygon class="cls-3" points="203.91 722.83 410.77 515.98 410.77 509.37 197.3 722.83 203.91 722.83"/><polygon class="cls-2" points="69.13 722.83 275.98 515.98 275.98 509.37 62.52 722.83 69.13 722.83"/><polygon class="cls-6" points="0 717.77 169.93 547.84 169.93 534.47 0 704.4 0 717.77"/><polygon class="cls-3" points="701.61 0 604.75 96.86 604.75 110.26 715.01 0 701.61 0"/><polygon class="cls-5" points="553.7 147.91 495.21 206.4 495.21 219.8 553.7 161.31 553.7 147.91"/><polygon class="cls-6" points="417.43 289.23 338.57 368.1 338.57 386.16 417.43 307.3 417.43 289.23"/><polygon class="cls-13" points="338.57 368.1 338.57 386.16 365.7 359.03 365.7 340.96 338.57 368.1"/><polygon class="cls-6" points="722.83 8.62 666.43 65.01 666.43 74.48 722.83 18.08 722.83 8.62"/><polygon class="cls-12" points="722.83 149.32 537.08 335.07 537.08 342.1 722.83 156.34 722.83 149.32"/><polygon class="cls-2" points="722.83 183.56 618.43 287.96 618.43 310.52 722.83 206.13 722.83 183.56"/><polygon class="cls-3" points="722.83 257.72 663.53 317.01 663.53 330.24 722.83 270.94 722.83 257.72"/><polygon class="cls-5" points="520.11 381.85 722.83 584.57 722.83 592.24 520.11 389.52 520.11 381.85"/><polygon class="cls-2" points="722.83 542.48 584.87 404.52 584.87 427.92 722.83 565.88 722.83 542.48"/><polygon class="cls-6" points="432.89 111.23 432.89 90.9 341.99 0 321.65 0 432.89 111.23"/><polygon class="cls-5" points="400.1 139.77 400.1 114.22 285.89 0 260.33 0 400.1 139.77"/><polygon class="cls-14" points="432.89 90.9 341.99 0 330.61 0 432.89 102.28 432.89 90.9"/><polygon class="cls-3" points="46.61 722.83 329.96 439.49 329.96 406.13 13.26 722.83 46.61 722.83"/><polygon class="cls-4" points="580.19 0 514.3 65.89 514.3 69.52 583.81 0 580.19 0"/><polygon class="cls-2" points="722.83 331.62 663.53 390.92 663.53 394.54 722.83 335.24 722.83 331.62"/><polygon class="cls-12" points="722.83 247.03 663.53 306.32 663.53 309.94 722.83 250.65 722.83 247.03"/><polygon class="cls-4" points="722.83 167.4 591.2 299.03 591.2 302.66 722.83 171.02 722.83 167.4"/><polygon class="cls-2" points="277.19 401.76 145.56 533.39 145.56 537.01 277.19 405.38 277.19 401.76"/><polygon class="cls-2" points="355.72 129.76 224.08 261.39 224.08 265.01 355.72 133.38 355.72 129.76"/><polygon class="cls-6" points="476.08 404.19 344.45 535.82 344.45 539.44 476.08 407.81 476.08 404.19"/><polygon class="cls-2" points="431.2 509.37 363.48 577.1 363.48 580.72 431.2 512.99 431.2 509.37"/><polygon class="cls-2" points="467.63 262.47 379.49 350.61 379.49 354.23 467.63 266.09 467.63 262.47"/><polygon class="cls-2" points="540.49 143.47 472.76 211.19 472.76 214.82 540.49 147.09 540.49 143.47"/><polygon class="cls-12" points="330.82 484.28 263.1 552.01 263.1 555.63 330.82 487.9 330.82 484.28"/><polygon class="cls-2" points="240.16 270.56 172.43 338.29 172.43 341.92 240.16 274.19 240.16 270.56"/><polygon class="cls-6" points="722.83 60.48 521.92 261.39 521.92 265.02 722.83 64.1 722.83 60.48"/><polygon class="cls-2" points="658.71 0 532.92 125.8 532.92 129.42 662.34 0 658.71 0"/><polygon class="cls-2" points="417.96 0 503.67 85.7 503.67 82.08 421.59 0 417.96 0"/><polygon class="cls-12" points="348.98 158.73 356.53 158.73 197.79 0 190.25 0 348.98 158.73"/></g></g></g></svg>