<?xml version="1.0" encoding="utf-8"?>
<!-- Generator: Adobe Illustrator 23.0.3, SVG Export Plug-In . SVG Version: 6.00 Build 0)  -->
<svg version="1.1" id="Calque_1" xmlns="http://www.w3.org/2000/svg" xmlns:xlink="http://www.w3.org/1999/xlink" x="0px" y="0px"
	 viewBox="0 0 206.3 208.8" style="enable-background:new 0 0 206.3 208.8;" xml:space="preserve">
<style type="text/css">
	.st0{fill:#5C5F5E;}
	.st1{fill:#5E605F;}
</style>
<g>
	<path class="st0" d="M31.4,70.6c4.5-6.9,8.3-13.3,12.7-19.2c0.3-0.4,0.6-0.8,0.8-1.2c2.9-6.1,7.2-11.3,10.7-17
		C60,26,64.7,19,69.3,12c2.3-3.4,4.4-7,6.6-10.4c1.4-2.1,1.9-2.2,3,0c2.9,5.6,6.8,10.7,10.2,16c4.6,7.3,9.4,14.5,14.1,21.7
		c4.5,6.9,9,13.8,13.5,20.8c2.1,3.2,4.5,6.2,6.4,10.4c-3.6,0-6.7,0-9.9,0c-3.8,0-7.6,0-11.4,0c-3.5,0-3.5,0-3.5,3.7
		c0,0.3,0,0.5,0,0.7c0,31.3,0,62.5,0,93.8c0,4.4-0.2,3.7,3.7,3.7c6.3,0,6.3,0,6.3-6.4c0-28.8,0-57.6,0-86.4c0-4.8-0.3-4.3,4.4-4.3
		c29.8,0,59.5,0,89.3,0c4.3,0,4.3,0,4.3,4.1c0,25.8,0,51.7,0,77.5c0,3.9,0,3.9-3.8,3.9c-14.9,0-29.8,0-44.7,0c-3.4,0-3.4,0-3.4-3.5
		c0-10,0-19.9,0-29.9c0-3.4,0-3.4,3.5-3.4c6-0.1,6-0.1,6-6c0-6.2,0-6.2-6.1-6.1c-2.8,0-6.3-1.2-8.1,0.6c-1.6,1.7-0.5,5.2-0.5,7.9
		c0,28.2,0,56.4,0,84.5c0,4.2,0.3,3.9-3.7,3.9c-28.2,0-56.4,0-84.5,0c-3.6,0-3.6,0-3.6-3.6c0-43.2,0-86.4,0-129.6
		c0-0.6-0.1-1.2,0-1.8c0.4-2.4-0.7-3.3-3.1-3.2c-5.9,0.1-11.8,0-17.7,0C35.1,70.6,33.6,70.6,31.4,70.6z"/>
	<path class="st1" d="M26.6,124.1c7.8,0,15.5,0.1,23.3,0c2.1,0,2.8,0.6,2.7,2.7c-0.1,10.5-0.1,20.9,0,31.4c0,2-0.5,2.8-2.7,2.8
		c-15.8-0.1-31.5-0.1-47.2,0c-2.1,0-2.7-0.6-2.7-2.7c0.1-10.5,0.1-20.9,0-31.4c0-2.5,0.9-2.8,3-2.8
		C10.9,124.1,18.8,124.1,26.6,124.1z"/>
</g>
</svg>
