<svg id="Calque_1" data-name="Calque 1" xmlns="http://www.w3.org/2000/svg" viewBox="0 0 615.81 261.67"><defs><style>.cls-1{fill:#f2f2f2;}.cls-2{fill:#ccc;}.cls-3{fill:#873600;}.cls-4{fill:#2f2e41;}.cls-5{opacity:0.1;isolation:isolate;}.cls-6{fill:#e67e22;}</style></defs><title>Remerciement</title><path class="cls-1" d="M561.55,392.52a2.27,2.27,0,0,0,1.65-3.94L563,388l.06-.14a6.09,6.09,0,0,1,11.24,0c1.84,4.43,4.18,8.86,4.76,13.54a17.94,17.94,0,0,1-.32,6.2,72.23,72.23,0,0,0,6.58-30,70,70,0,0,0-.43-7.78q-.36-3.18-1-6.31a73.17,73.17,0,0,0-14.5-31,19.41,19.41,0,0,1-8.09-8.4,14.63,14.63,0,0,1-1.35-4.05c.39.05,1.48-5.95,1.19-6.32.55-.83,1.53-1.25,2.13-2.06,3-4,7.09-3.34,9.23,2.16,4.59,2.31,4.63,6.15,1.82,9.83-1.79,2.35-2,5.53-3.61,8l.5.61a73.76,73.76,0,0,1,7.68,12.17,30.68,30.68,0,0,1,1.82-14.21c1.75-4.22,5-7.77,7.91-11.41a6.28,6.28,0,0,1,11.19,3.08c0,.05,0,.11,0,.16-.42.24-.84.5-1.25.77a3.08,3.08,0,0,0,1.24,5.6h.06a30.7,30.7,0,0,1-.81,4.58c3.7,14.32-4.29,19.53-15.7,19.77l-.75.38a73,73,0,0,1,2.77,10,74.66,74.66,0,0,1,1.28,9.05,71.22,71.22,0,0,1-.06,11.5l0-.14a18.85,18.85,0,0,1,6.43-10.87c4.95-4.06,11.93-5.56,17.27-8.82a3.53,3.53,0,0,1,5.41,3.44l0,.14a19.81,19.81,0,0,0-2.32,1.12c-.43.24-.85.49-1.26.77a3.08,3.08,0,0,0,1.24,5.6h.06l.13,0a30.62,30.62,0,0,1-5.64,8.83c-2.31,12.49-12.25,13.68-22.89,10h0A75.38,75.38,0,0,1,580,408.61H562l-.18-.61a20.84,20.84,0,0,0,5-.3l-4-4.93-.09-.1c-.67-.84-1.36-1.67-2-2.51h0a30.17,30.17,0,0,1,.88-7.64Z" transform="translate(0 -153.23)"/><path class="cls-1" d="M54.3,392.52a2.27,2.27,0,0,1-1.65-3.94l.16-.62-.06-.14a6.09,6.09,0,0,0-11.24,0c-1.84,4.43-4.18,8.86-4.76,13.54a17.94,17.94,0,0,0,.32,6.2,72.23,72.23,0,0,1-6.58-30,67.63,67.63,0,0,1,.44-7.78q.34-3.18,1-6.31a73.17,73.17,0,0,1,14.5-31,19.41,19.41,0,0,0,8.09-8.4,14.63,14.63,0,0,0,1.35-4.05c-.39.05-1.48-5.95-1.19-6.32-.54-.83-1.53-1.25-2.13-2.06-3-4-7.09-3.34-9.23,2.16-4.59,2.31-4.63,6.15-1.82,9.83,1.79,2.35,2,5.53,3.61,8l-.49.61a73.16,73.16,0,0,0-7.69,12.17,30.68,30.68,0,0,0-1.82-14.21c-1.75-4.22-5-7.77-7.91-11.41A6.28,6.28,0,0,0,16,321.94c0,.05,0,.11,0,.16.42.24.84.5,1.25.77a3.07,3.07,0,0,1-1.24,5.6h-.06a30.7,30.7,0,0,0,.81,4.58c-3.7,14.32,4.29,19.53,15.7,19.77l.75.38a74.29,74.29,0,0,0-4,19,70.09,70.09,0,0,0,.05,11.5l0-.14a18.85,18.85,0,0,0-6.43-10.87c-4.94-4.06-11.93-5.56-17.27-8.82a3.53,3.53,0,0,0-5.41,3.44l0,.14a19.81,19.81,0,0,1,2.32,1.12c.43.24.85.49,1.26.77A3.08,3.08,0,0,1,2.44,375H2.38l-.13,0a30.62,30.62,0,0,0,5.64,8.83c2.31,12.49,12.25,13.68,22.89,10h0a75.38,75.38,0,0,0,5,14.73h18L54,408a20.84,20.84,0,0,1-5-.3l4-4.93.09-.1,2-2.51h0a30.17,30.17,0,0,0-.88-7.64Z" transform="translate(0 -153.23)"/><path class="cls-1" d="M150.66,411.12l-.84,1a147,147,0,1,1,190.71,0l-.84-1" transform="translate(0 -153.23)"/><path class="cls-2" d="M395,410.15a1.19,1.19,0,0,0,1.19,1.19H614.48a1.19,1.19,0,0,0,0-2.38H396.19A1.19,1.19,0,0,0,395,410.15Z" transform="translate(0 -153.23)"/><path class="cls-2" d="M0,410.15a1.19,1.19,0,0,0,1.19,1.19H219.48a1.19,1.19,0,0,0,0-2.38H1.19A1.19,1.19,0,0,0,0,410.15Z" transform="translate(0 -153.23)"/><path class="cls-2" d="M182,410.15a1.19,1.19,0,0,0,1.19,1.19H401.48a1.19,1.19,0,0,0,0-2.38H183.19A1.19,1.19,0,0,0,182,410.15Z" transform="translate(0 -153.23)"/><path id="uuid-506e980e-f0d6-40ec-b8bf-dc46994aec97-259" class="cls-3" d="M374.73,233.86c-1.75-2.69-4.23-3.69-5.53-2.22s-.94,4.84.81,7.53a7.27,7.27,0,0,0,2.56,2.5L380.11,253l3.95-4.76-7.85-10.63A10.08,10.08,0,0,0,374.73,233.86Z" transform="translate(0 -153.23)"/><path class="cls-4" d="M431.3,247.63s1.65,9.92-4.89,13.09-23.5,15.31-24.76,14.75-5.36,2.16-10.2-3.63-16.56-23.29-16.56-23.29l4.82-8.6,18.13,16.48A11.27,11.27,0,0,1,400,256c1.72-.23.37,1.19,3.06-1.66s19.85-13.07,19.85-13.07,5-3.28,8.44,6.32Z" transform="translate(0 -153.23)"/><path class="cls-3" d="M388.52,386.06l2.66,11.3-7.4,6.62-5.33-6.23s2.07-9.74,1.18-12.08Z" transform="translate(0 -153.23)"/><polygon class="cls-3" points="426.13 72.73 430.38 85.05 417.95 95.21 417.25 80.52 426.13 72.73"/><polygon class="cls-5" points="426.13 72.73 430.38 85.05 417.95 95.21 417.25 80.52 426.13 72.73"/><path class="cls-2" d="M465.59,268.11c-4.14-3.14-8.08,1.87-11.75,17.69,0,0-15.5,28.88-15.51,40.93H394L384.17,345l-.76.16s4.92,1.54,12.65,3.25v60.84h2.64V349c2.32.48,4.83,1,7.49,1.41v58.87h2.65V350.85a161,161,0,0,0,24.37,2q.81,0,1.59,0v56.46h2.64V352.63a22.88,22.88,0,0,0,10.07-3.32v60h2.65V347.2c6.72-6.61,5.29-16.63,5.29-16.63-2-15.95,7.69-40,12.4-50.52C469.69,275.92,468.74,270.49,465.59,268.11Z" transform="translate(0 -153.23)"/><ellipse class="cls-3" cx="421.25" cy="71.84" rx="9.02" ry="11.87"/><path class="cls-6" d="M417.84,245.83l12.73-11.3L428.5,330S418,306,410,304.84c0,0,.89-2.72,1.48-4.28s1.48-9.35,1.48-9.35l4.15-42.07Z" transform="translate(0 -153.23)"/><path class="cls-4" d="M428.06,344.58l-11.26-52.2s1.78-42.07,13.77-57.85l2.82,5.65s2.78.54,2.28,3S446.72,336,446.72,336h-12S433.68,344.58,428.06,344.58Z" transform="translate(0 -153.23)"/><path class="cls-4" d="M417.84,245.83v-1.56s-5.48.58-5.78,4.87-2.66,21-.29,31.16l-3,6.23-2.08,14.81,6.52,2.33,3.55-35.94s2.37-19,1-21.9Z" transform="translate(0 -153.23)"/><path class="cls-4" d="M428.35,320s5,19.08-5.62,19.47-27.28.39-27.28.39l-8.27,5.85,2.37,42.46-16.58.38s-5.33-52.19-.6-58.43,18.37-12.85,18.37-12.85l15.7-10.52,4.41-7.05Z" transform="translate(0 -153.23)"/><path class="cls-4" d="M429,232c.63-.29,6.52-9.37,1.61-15.39,0,0-1.91-7.35-9.52-6.57s-9.67,6.25-9.67,9.09,2,6.05,2,6.05-1.44-7.82,1.79-7.44,2.34,1.93,4.69,1.16a6.9,6.9,0,0,1,4.68.38l2.35,1.16v4.7s1-1.08,1.09,0S429,232,429,232Z" transform="translate(0 -153.23)"/><path class="cls-3" d="M378,328.22l-.29,12.07-11.56-2.73s5-10.73,4.26-13.74Z" transform="translate(0 -153.23)"/><path class="cls-4" d="M376.82,337.56s2.07,0,2.07,1.56,3.26,13.64-3,14S370,352,370,352s-17.47,10.52-23.69-5.07c0,0-1.48-3.89,2.07-4.67s17.77-7.3,17.77-7.3S374.45,339.12,376.82,337.56Z" transform="translate(0 -153.23)"/><path class="cls-4" d="M388.81,397.36s2.08-3.3,2.37-3,6.81,10,2.37,12.76-6.81,3.89-6.81,3.89l-1.19-2.33S376.67,420,363,412.16c0,0-1.18-3.5,1.49-4.28s13.92-12.65,13.92-12.65,4.74,4.47,7.1,3.69A10.14,10.14,0,0,0,388.81,397.36Z" transform="translate(0 -153.23)"/><path class="cls-4" d="M410,303.67s-27.69-18.5-30.06-18.5-6.9,1.28-7.9,7.26-6.91,34.81-6.91,34.81l14.51,4.68,5.63-20.65,9.18,10.91L410,310Z" transform="translate(0 -153.23)"/><path id="uuid-724716db-9301-4721-8891-c606ecc0c822-260" class="cls-3" d="M397,296.53c-2.67.51-4.63,2.74-4.38,5s2.62,3.63,5.28,3.11a5.93,5.93,0,0,0,3-1.52l11.28-2.37-1-6.94-11,3.08A5.14,5.14,0,0,0,397,296.53Z" transform="translate(0 -153.23)"/><path class="cls-4" d="M436,240.91a11.51,11.51,0,0,1,5.81,12.43c-1.45,9-2.67,34.31-3.7,35.41s-1.47,7.12-7.78,9.42-24.43,12.49-24.43,12.49l-2.34-16.42,20.27-11.4a21.86,21.86,0,0,1,.87-2.55c.77-2,1,.22.56-4.29s2.17-29.06,2.17-29.06.58-7.35,8.57-6Z" transform="translate(0 -153.23)"/><path class="cls-6" d="M370.38,168.28h0l-.11.15c-5.65-7.37-14.75-7.44-20.46-.15h0c-5.73,7.32-5.92,19.34-.43,27h0l.13.19h0l20.21,27.37,20.95-26.76-.05-.08a1.47,1.47,0,0,1,.1-.13h0c5.79-7.39,5.92-19.55.3-27.16h0c-5.61-7.61-14.86-7.79-20.64-.4Z" transform="translate(0 -153.23)"/></svg>